<svg xmlns="http://www.w3.org/2000/svg" viewBox="0 0 63.251 63.252"><defs><style>.a{fill:#eb0029;}.b{fill:#0033a0;}.c{fill:#435363;}</style></defs><path class="a" d="M44.088,46.582l-.632.276c-.054.024-5.021,2.254-5.788,5.562,1.625.367,4.818,1.303,6.49,3.25l.256.297V59.35H32.56l-2.123-7.456L28.02,54.231a7.7893,7.7893,0,0,1,1.714,1.43l.261.301v3.391H22.721l-4.035,3.899H63.247L43.862,43.863a9.161,9.161,0,0,1,.226,2.03Z"></path><path class="a" d="M16.778,24.108a4.3124,4.3124,0,0,1-4.493,4.323c-1.267,0-4.214-.589-4.214-6.041V19.971s2.344,2.753,3.61,2.753c.674,0,1.339-.709,2.108-1.529,1.094-1.163,2.449-2.579,4.61-2.761L0,.003v45.15L21.648,23.465a3.6471,3.6471,0,0,0-2.624-1.057C18.179,22.409,16.778,23.232,16.778,24.108Z"></path><path class="a" d="M46.783,15.646a9.7884,9.7884,0,0,0,2.083-2.922,3.6377,3.6377,0,0,1,3.104-2.062h.633L63.25.001H57.667L43.456,14.231l-.59,2.893A6.2123,6.2123,0,0,0,46.783,15.646Z"></path><path class="b" d="M44.209,7.706l.057,2.129-.031.03a1.9749,1.9749,0,0,1,.165.827L55.09,0H41.347V7.553a9.9722,9.9722,0,0,0,1.805.153Z"></path><polygon class="b" points="51.108 20.303 49.508 21.904 63.251 21.904 63.251 8.161 54.079 17.333 53.587 20.297 51.108 20.303"></polygon><polygon class="b" points="63.251 55.093 63.251 41.349 49.508 41.349 63.251 55.093"></polygon><polygon class="b" points="21.905 0 8.161 0 21.905 13.743 21.905 0"></polygon><path class="a" d="M52.082,29.391h0l-.337,2.032h.002l-.557,3.352H48.176l-.203-.086a8.126,8.126,0,0,0-3.342-.879,11.3448,11.3448,0,0,0-3.025.467l-2.786.97a10.3337,10.3337,0,0,0-1.423.643v.421a16.0669,16.0669,0,0,1,1.772,1.087H63.251V25.854H52.667Z"></path><path class="a" d="M32.185,3.904a8.9758,8.9758,0,0,1,4.862,1.244l.35.221V.001H25.856V7.708c.011-.019.022-.041.033-.06A7.5291,7.5291,0,0,1,32.185,3.904Z"></path><path class="c" d="M27.736,25.065c-1.478-4.652-2.521-6.865-2.624-9.957a12.8294,12.8294,0,0,1,1.782-6.924A6.5157,6.5157,0,0,1,32.28,4.959a7.9522,7.9522,0,0,1,4.298,1.08,20.62,20.62,0,0,0-2.162-.091c-1.521,0-2.994.092-3.01.093l-.174.013v3.12c-1.018.451-5.217,4.387-.871,15.891Z"></path><path class="c" d="M31.692,25.065c-2.983-7.04-2.156-12.428-.179-14.605a3.1831,3.1831,0,0,0,2.044,1.1,10.7364,10.7364,0,0,0-.869,4.37,10.5359,10.5359,0,0,0,1.089,4.563,13.9089,13.9089,0,0,0,3.759,4.572Z"></path><path class="c" d="M39.534,25.065a12.3153,12.3153,0,0,1-4.509-4.995,10.2172,10.2172,0,0,1-.818-6.624,6.269,6.269,0,0,0,1.464,3.124c.781.767,2.085,1.14,3.984,1.14a2.1711,2.1711,0,0,1,1.755.729c1.12,1.309.837,4.086.668,5.743-.036.354-.065.652-.079.883Z"></path><path class="c" d="M41.891,17.085c-.431-.36-1.488-.884-4.018-.884-1.755,0-2.271-2.02-2.686-3.644-.303-1.188-.564-2.212-1.274-2.212-1.693,0-1.724-1.296-1.724-1.353V6.936c.376-.025,1.332-.084,2.422-.084,2.482,0,4.106.293,4.574.829.849.972,3.123,1.077,4.062,1.077h.057v.615a.4469.4469,0,0,1-.101.063.46.46,0,0,0-.292.389.3272.3272,0,0,0,.247.302c.132.057.28.119.28.59,0,.512-.652,1.172-1.125,1.566a1.1583,1.1583,0,0,0-.223-.646.7625.7625,0,0,0-.601-.313h-.1c-.844,0-2.356.131-2.996,1.013a1.7906,1.7906,0,0,0-.214,1.567,1.7,1.7,0,0,0,1.881,1.26,6.9492,6.9492,0,0,0,2.322-.508ZM36.087,8.124c.159.272.715,1.174,1.155,1.229a1.5121,1.5121,0,0,0,.206.015,2.7508,2.7508,0,0,0,1.163-.305l.177-.095-.104-.179a2.0593,2.0593,0,0,0-.716-.748,10.4476,10.4476,0,0,0-1.714-.212L35.9,7.806Z"></path><path class="c" d="M19.697,40.357a4.3486,4.3486,0,0,1-3.438-4.313,4.1964,4.1964,0,0,1,1.031-2.793,3.457,3.457,0,0,1,2.49-1.206l.179-.005v-.006a4.4127,4.4127,0,0,0,3.164-1.635,5.6616,5.6616,0,0,0,1.271-3.579c0-1.185-1.249-5.469-5.276-5.469-1.317,0-3.301,1.177-3.301,2.755a3.2766,3.2766,0,0,1-3.437,3.269c-1.867,0-3.157-1.468-3.157-4.986a3.333,3.333,0,0,0,2.553,1.394c2.494,0,3.55-4.326,7.173-4.326,5.106,0,7.427,4.985,7.427,7.365a8.8571,8.8571,0,0,1-1.695,5.299,6.0664,6.0664,0,0,1-4.823,2.465,1.4746,1.4746,0,0,0-.162,2.903v2.868Z"></path><path class="c" d="M43.124,25.064c.144-.995.614-4.877-.379-6.861a7.3176,7.3176,0,0,0,4.833-1.766,10.7645,10.7645,0,0,0,2.315-3.217,2.6253,2.6253,0,0,1,2.169-1.503h1.966l-.206,1.238H51.926l-.138.824h1.896l-.205,1.238H51.582l-.152.921h1.897l-.205,1.24H51.226l-.137.823h1.896l-.206,1.239-2.16.006c-1.674.063-2.17,1.225-2.691,2.451-.66,1.548-1.405,3.296-4.804,3.367"></path><path class="c" d="M48.49,33.72a9.031,9.031,0,0,0-3.766-.969,13.8611,13.8611,0,0,0-4.228.791c-2.758-.019-6.768-3.5-8.337-7.255H41.94a2.6091,2.6091,0,0,0,2.68,2.169,4.8866,4.8866,0,0,0,3.263-1.104,2.78,2.78,0,0,1,2.142-1.063l1.593-.002-.204,1.237H49.518l-.133.794h1.896l-.204,1.238H49.181l-.148.89h1.898l-.205,1.239H48.828l-.133.795h1.898l-.205,1.24Z"></path><path class="c" d="M28.003,58.294l-.563-1.938H26.395l.563,1.938H25.525l-.564-1.938H23.915l.564,1.938H22.95l-.563-1.938H21.341l.564,1.938H18.974l-2.708-9.408a7.2431,7.2431,0,0,0,3.6-4.25,21.51,21.51,0,0,0,.94-7.141c1.397-.103,3.309-1.322,4.825-3.103,1.928-2.268,2.356-5.138,2.401-8.106h2.871a19.7726,19.7726,0,0,0,2.844,4.735,10.81,10.81,0,0,0,4.819,3.227,16.3449,16.3449,0,0,0-5.659,3.711c-2.118,2.084-3.334,4.297-3.334,6.078,0,3.266-2.045,3.907-4.198,4.627-4.475,1.496-3.19,4.604-3.19,4.604s4.641.566,6.851,3.088v1.938Z"></path><path class="c" d="M42.41,58.294l-.563-1.938H40.801l.564,1.938H39.931l-.564-1.938H38.322l.564,1.938h-1.53l-.564-1.938H35.745l.564,1.938H33.451l-2.679-9.408c6.072-.857,3.748-4.688.129-5.85a14.0124,14.0124,0,0,1,5.248-6.199s6.976,2.822,6.976,9.057c0,0-6.517,2.857-6.517,7.375,0,0,4.817.732,6.844,3.088v1.938l-1.042-.001Z"></path></svg>